<?xml version="1.0" encoding="UTF-8"?>
<svg xmlns="http://www.w3.org/2000/svg" xmlns:xlink="http://www.w3.org/1999/xlink" version="1.1" id="Layer_1" x="0px" y="0px" width="100%" viewBox="0 0 1254 1254" enable-background="new 0 0 1254 1254" xml:space="preserve" style="background: transparent;">

<path fill="#E86A86" opacity="1.000000" stroke="none" d=" M599.074951,118.102295   C623.137817,117.122635 646.781311,114.895195 670.355713,115.474747   C739.265503,117.168854 804.225891,134.709579 865.165955,167.023422   C909.913147,190.750931 949.389893,221.397797 983.659241,258.561401   C1020.216003,298.205597 1049.014648,342.948517 1070.088013,392.715118   C1088.609619,436.455444 1100.285645,481.932922 1105.600952,529.001221   C1110.442749,571.877319 1109.681641,614.735596 1103.334961,657.506348   C1096.582275,703.012329 1084.810303,747.137634 1067.691772,789.788513   C1046.962402,841.436157 1019.374939,889.183350 984.567078,932.659729   C937.251892,991.758118 879.360291,1037.666260 811.263794,1070.650635   C783.322632,1084.184570 754.386658,1095.145264 724.134460,1102.415039   C723.006714,1102.686035 721.860779,1102.891846 720.713623,1103.063843   C720.421387,1103.107666 720.092224,1102.905518 719.266968,1102.669922   C720.155518,1101.957642 720.723389,1101.257690 721.455933,1100.949829   C794.426880,1070.292969 855.265198,1023.133423 907.656494,964.390381   C948.878479,918.170898 982.659729,867.101257 1008.245728,810.687683   C1028.425659,766.193848 1042.682983,719.909363 1050.224976,671.550842   C1054.883301,641.683167 1057.095703,611.659973 1056.703003,581.496521   C1055.959961,524.440796 1049.327515,468.247620 1029.648071,414.235382   C1007.561951,353.617645 974.263977,300.149933 926.688354,256.241211   C872.712341,206.425369 809.306702,175.177277 737.058105,161.671997   C705.953186,155.857635 674.612244,153.537430 643.103271,154.999176   C558.139709,158.940765 479.150421,181.519531 410.964447,234.153290   C342.594757,286.928894 293.219574,354.062988 263.831543,435.564819   C252.778168,466.219116 244.902695,497.673218 241.324081,530.050354   C237.468277,564.935242 237.905670,599.827209 242.672882,634.682068   C247.276031,668.337219 255.696732,700.932922 267.934753,732.591003   C289.833710,789.240540 322.602020,838.719482 365.885803,881.264587   C397.522919,912.361877 433.481812,937.359924 473.044586,957.332153   C477.659637,959.661987 479.756165,958.738342 482.386200,954.550293   C509.919189,910.707092 519.536865,862.888794 515.634888,811.646301   C514.775879,800.364563 510.659943,792.702759 502.405609,785.031677   C465.656281,750.879456 442.045410,708.436829 427.046204,660.921875   C410.417603,608.245300 407.632690,554.022949 409.427917,499.359253   C410.017670,481.402466 411.653839,463.479980 412.829407,445.542969   C412.882324,444.736084 413.113586,443.940887 413.434723,442.205933   C415.383820,443.544983 417.055511,444.402588 418.369415,445.640015   C436.942596,463.132080 458.169861,476.279694 482.274139,484.684814   C502.673218,491.797913 523.705078,494.346649 545.237061,493.080872   C546.994202,492.977600 548.762695,493.067291 551.955933,493.067291   C550.085144,494.701996 549.297058,495.611237 548.319397,496.212128   C531.136719,506.772858 512.429871,507.769562 493.274261,504.308411   C472.551331,500.564087 454.243439,491.196075 437.400116,478.783264   C435.667999,477.506744 433.897888,476.281677 431.103241,474.290009   C431.103241,478.053864 430.947021,480.910492 431.126831,483.745789   C433.529846,521.637085 436.825745,559.414734 444.896149,596.623535   C456.462463,649.950378 474.062042,700.882996 505.151611,746.276672   C523.191467,772.616577 545.092285,795.086792 574.704834,808.488098   C609.861694,824.398682 644.479492,823.135803 678.063599,803.593994   C705.134216,787.842346 725.421387,765.044678 743.718750,740.178467   C762.178284,715.091858 775.968262,687.327393 790.104004,659.753662   C791.177246,657.660095 792.515137,655.702148 793.730042,653.681152   C794.297546,653.886169 794.865051,654.091125 795.432495,654.296143   C794.690613,657.688538 794.133362,661.133850 793.178101,664.464966   C784.395752,695.088562 771.159851,723.718506 754.331421,750.721008   C738.954285,775.394897 720.797302,797.746643 697.070435,814.803528   C650.126343,848.551392 601.151794,849.530273 551.059753,822.112000   C542.202332,817.263794 533.973511,811.267090 525.269836,805.682312   C532.072144,862.799133 523.560303,916.440613 489.864044,964.837341   C531.371521,982.377258 574.703979,991.946899 619.744690,994.309875   C619.706604,994.825684 619.668518,995.341492 619.630432,995.857300   C616.602844,996.179260 613.582458,996.662354 610.546509,996.799377   C555.736328,999.273499 503.684357,987.727905 453.739716,965.707703   C405.861237,944.598511 363.079559,915.859375 325.152344,879.798401   C264.970520,822.577698 224.046860,754.076782 203.799118,673.409424   C196.559906,644.568237 192.744141,615.261658 191.855698,585.536133   C189.196167,496.552673 211.768494,413.989716 256.677094,337.665405   C298.488556,266.604828 356.025482,211.194992 428.602173,171.759796   C480.107758,143.773804 535.157166,126.629654 593.199280,118.899384   C595.009216,118.658333 596.815796,118.391693 599.074951,118.102295  z"/>
<path fill="#E96A86" opacity="1.000000" stroke="none" d=" M751.458984,561.555298   C714.782715,514.543945 668.157043,482.060730 612.617065,461.888000   C581.171997,450.466797 549.487793,439.563110 518.633362,426.695068   C485.495636,412.874695 455.250183,393.838501 430.848236,367.013794   C421.385956,356.612061 413.716003,344.572784 405.337799,333.199738   C404.120880,331.547821 403.510925,329.448761 402.620087,327.556610   C402.964111,327.272156 403.308136,326.987701 403.652191,326.703217   C404.820038,327.846741 406.102905,328.895081 407.139038,330.147583   C438.713928,368.315491 478.183533,395.602570 523.429321,415.119995   C557.919556,429.997772 594.008789,440.029663 629.787354,451.033661   C669.615906,463.283325 707.891541,478.803680 741.898926,503.537811   C795.037170,542.186096 829.262756,593.745117 846.900146,656.694214   C856.918518,692.450684 860.995483,728.960022 858.630859,765.944641   C853.665405,843.608215 827.132996,912.926819 776.219971,972.285889   C732.528320,1023.225586 678.447083,1058.240845 613.759094,1076.467773   C578.270630,1086.467285 542.031128,1089.402344 505.382141,1085.796997   C473.459290,1082.656616 443.000122,1073.856934 414.033051,1060.041016   C352.984375,1030.923706 306.074707,986.337585 270.871429,928.981628   C269.443512,926.655151 268.202026,924.214294 266.873718,921.826721   C267.303741,921.492310 267.733795,921.157837 268.163849,920.823364   C269.289612,922.008240 270.482178,923.136902 271.531586,924.385925   C324.747498,987.723083 391.903717,1027.562622 473.157898,1043.069580   C525.410645,1053.041626 577.227539,1051.025146 627.898926,1033.832886   C670.646118,1019.329285 706.643921,994.403137 736.736633,960.940552   C777.943420,915.119507 804.844604,862.095093 814.711304,801.099426   C822.140869,755.169922 817.970276,709.796021 804.670105,665.276917   C793.397644,627.545349 776.008972,592.902161 751.458984,561.555298  z"/>
<path fill="#E86D87" opacity="1.000000" stroke="none" d=" M637.799561,762.827393   C612.107056,767.574219 590.250366,762.186584 573.087830,741.776184   C566.798462,734.296692 560.402771,726.699646 551.009277,722.605103   C549.791687,722.074402 549.150269,720.221619 548.242004,718.981262   C549.658936,718.376892 551.128418,717.149170 552.484680,717.263611   C567.448914,718.526428 579.780579,713.628052 590.249268,702.787292   C596.663696,696.144958 602.034790,695.846558 609.998535,700.563843   C618.114990,705.371765 625.782104,705.684448 633.871643,700.370605   C640.859924,695.780151 645.752563,695.989929 651.340088,702.040955   C661.827637,713.398743 674.318909,718.673706 689.717102,717.358704   C691.048218,717.244995 692.494202,718.476440 693.886841,719.083069   C693.068726,720.225281 692.386475,721.502136 691.410034,722.487427   C685.930176,728.017029 680.074280,733.205505 674.917725,739.017029   C664.837463,750.377686 653.311646,759.266235 637.799561,762.827393  M591.360779,740.583008   C592.200378,739.714661 593.370544,738.990173 593.821655,737.952881   C595.668274,733.706665 598.164673,734.479553 600.946411,736.371338   C600.125732,739.205383 599.406860,741.687805 598.467346,744.932068   C603.950806,743.785645 602.229248,735.810913 608.795715,737.481506   C614.835022,739.017944 610.848755,745.204102 614.755066,748.307861   C615.825928,744.420837 616.760071,741.029907 617.942688,736.737122   C612.694824,735.781982 607.668884,735.153015 602.802490,733.902893   C597.716248,732.596436 592.783447,730.692505 587.149170,728.841370   C589.244019,726.370789 590.296753,725.129211 591.670410,723.509216   C586.737793,725.041382 582.507507,726.355469 578.090393,727.727600   C580.572632,728.501648 582.879333,729.221008 585.310364,729.979126   C584.926025,731.879578 584.635925,733.314026 584.251465,735.214844   C585.220581,734.645447 585.601440,734.315002 586.041931,734.181946   C587.670471,733.689941 589.318604,733.263062 590.959412,732.811768   C591.144531,734.371277 591.411865,735.927246 591.480347,737.491882   C591.515381,738.289429 591.193542,739.102722 591.360779,740.583008  M646.256104,733.114197   C645.160034,731.853088 644.064026,730.592041 643.748291,730.228760   C641.082397,731.883057 638.506531,734.046265 635.537354,735.172546   C632.258179,736.416321 628.618408,736.709717 624.520081,737.541992   C626.332397,741.533813 627.848816,744.873901 629.365234,748.213989   C629.834656,748.021484 630.304138,747.828979 630.773560,747.636414   C630.773560,746.538086 630.675598,745.429016 630.794739,744.343750   C631.015869,742.328857 630.710144,739.151367 631.787659,738.552734   C634.485840,737.053589 637.157532,738.318726 638.939514,741.109009   C639.829712,742.503113 641.071228,743.672913 642.153870,744.944153   C642.656799,744.604919 643.159790,744.265747 643.662720,743.926514   C642.413391,741.804016 641.164062,739.681519 639.946716,737.613403   C645.791809,731.481323 648.025635,741.010315 653.106934,740.834595   C651.690552,738.303650 650.690247,736.516113 649.689880,734.728638   C649.951843,734.241394 650.213806,733.754089 650.475769,733.266846   C653.218933,733.958618 655.962036,734.650391 659.159851,735.456848   C657.990051,733.981140 657.167542,732.943604 655.857727,731.291321   C659.445557,729.952393 662.403503,728.848511 665.826721,727.570984   C662.768860,726.742310 660.259094,726.062134 657.749329,725.381958   C657.955017,725.885315 658.160767,726.388672 658.366516,726.892029   C654.593994,728.920532 650.821411,730.949097 646.256104,733.114197  z"/>
<path fill="#FBE7EC" opacity="1.000000" stroke="none" d=" M591.196899,740.245972   C591.193542,739.102722 591.515381,738.289429 591.480347,737.491882   C591.411865,735.927246 591.144531,734.371277 590.959412,732.811768   C589.318604,733.263062 587.670471,733.689941 586.041931,734.181946   C585.601440,734.315002 585.220581,734.645447 584.251465,735.214844   C584.635925,733.314026 584.926025,731.879578 585.310364,729.979126   C582.879333,729.221008 580.572632,728.501648 578.090393,727.727600   C582.507507,726.355469 586.737793,725.041382 591.670410,723.509216   C590.296753,725.129211 589.244019,726.370789 587.149170,728.841370   C592.783447,730.692505 597.716248,732.596436 602.802490,733.902893   C607.668884,735.153015 612.694824,735.781982 617.942688,736.737122   C616.760071,741.029907 615.825928,744.420837 614.755066,748.307861   C610.848755,745.204102 614.835022,739.017944 608.795715,737.481506   C602.229248,735.810913 603.950806,743.785645 598.467346,744.932068   C599.406860,741.687805 600.125732,739.205383 600.946411,736.371338   C598.164673,734.479553 595.668274,733.706665 593.821655,737.952881   C593.370544,738.990173 592.200378,739.714661 591.196899,740.245972  z"/>
<path fill="#FBE3E7" opacity="1.000000" stroke="none" d=" M646.652466,733.045898   C650.821411,730.949097 654.593994,728.920532 658.366516,726.892029   C658.160767,726.388672 657.955017,725.885315 657.749329,725.381958   C660.259094,726.062134 662.768860,726.742310 665.826721,727.570984   C662.403503,728.848511 659.445557,729.952393 655.857727,731.291321   C657.167542,732.943604 657.990051,733.981140 659.159851,735.456848   C655.962036,734.650391 653.218933,733.958618 650.475769,733.266846   C650.213806,733.754089 649.951843,734.241394 649.689880,734.728638   C650.690247,736.516113 651.690552,738.303650 653.106934,740.834595   C648.025635,741.010315 645.791809,731.481323 639.946716,737.613403   C641.164062,739.681519 642.413391,741.804016 643.662720,743.926514   C643.159790,744.265747 642.656799,744.604919 642.153870,744.944153   C641.071228,743.672913 639.829712,742.503113 638.939514,741.109009   C637.157532,738.318726 634.485840,737.053589 631.787659,738.552734   C630.710144,739.151367 631.015869,742.328857 630.794739,744.343750   C630.675598,745.429016 630.773560,746.538086 630.773560,747.636414   C630.304138,747.828979 629.834656,748.021484 629.365234,748.213989   C627.848816,744.873901 626.332397,741.533813 624.520081,737.541992   C628.618408,736.709717 632.258179,736.416321 635.537354,735.172546   C638.506531,734.046265 641.082397,731.883057 643.748291,730.228760   C644.064026,730.592041 645.160034,731.853088 646.652466,733.045898  z"/>
</svg>